<svg width="100" height="100" viewBox="0 0 100 100" fill="none" xmlns="http://www.w3.org/2000/svg">
<path fill-rule="evenodd" clip-rule="evenodd" d="M84 0C92.8366 1.41737e-06 100 7.16345 100 16V84C100 92.8366 92.8366 100 84 100H16C7.16345 100 0 92.8366 0 84V16C1.41746e-06 7.16345 7.16345 0 16 0H84ZM25.5 44C22.45 44 19.5248 45.2115 17.3682 47.3682C15.2115 49.5248 14 52.45 14 55.5C14 58.55 15.2115 61.4752 17.3682 63.6318C19.5248 65.7885 22.45 67 25.5 67H70.5C71.4283 67 72.3182 67.369 72.9746 68.0254C73.631 68.6818 74 69.5717 74 70.5C74 71.4283 73.631 72.3182 72.9746 72.9746C72.3182 73.631 71.4283 74 70.5 74H39C36.7909 74 35 75.7909 35 78C35 80.2091 36.7909 82 39 82H70.5C73.55 82 76.4752 80.7885 78.6318 78.6318C80.7885 76.4752 82 73.55 82 70.5C82 67.45 80.7885 64.5248 78.6318 62.3682C76.4752 60.2115 73.55 59 70.5 59H25.5C24.5717 59 23.6818 58.631 23.0254 57.9746C22.369 57.3182 22 56.4283 22 55.5C22 54.5717 22.369 53.6818 23.0254 53.0254C23.6818 52.369 24.5717 52 25.5 52H36C38.2091 52 40 50.2091 40 48C40 45.7909 38.2091 44 36 44H25.5ZM73.3281 15.1719C71.815 13.6587 69.3915 13.611 67.8213 15.0293L67.6719 15.1719L45.1719 37.6719C44.4217 38.422 44 39.4391 44 40.5V48C44 50.2091 45.7909 52 48 52H55.5C56.5609 52 57.578 51.5783 58.3281 50.8281L80.8281 28.3281C82.3902 26.766 82.3902 24.234 80.8281 22.6719L73.3281 15.1719Z" fill="white"/>
</svg>
